<svg id="Layer_1" enable-background="new 0 0 512 512" height="512" viewBox="0 0 512 512" width="512" xmlns="http://www.w3.org/2000/svg"><g><path clip-rule="evenodd" d="m140.998 266.004h90.847l17.083 17.083c3.889 3.889 10.253 3.889 14.142 0l17.084-17.084h90.846c5.5 0 9.999-4.5 9.999-10v-220.003c0-5.5-4.52-10-9.999-10h-230.002c-5.479 0-9.999 4.52-9.999 10v220.005c0 5.485 4.5 9.999 9.999 9.999z" fill="#a4fbc4" fill-rule="evenodd"/><g fill="#020288"><path d="m477.663 387.567c3.495-6.695 5.473-14.302 5.473-22.363v-19.244c-2.671-64.337-94.322-64.287-96.969 0v19.243c0 8.065 1.98 15.676 5.478 22.373-6.195 4.159-11.742 9.176-16.498 14.913-4.719-5.676-10.286-10.712-16.587-14.922 3.495-6.695 5.473-14.303 5.473-22.364v-19.243c-2.671-64.337-94.322-64.287-96.969 0v19.243c0 8.061 1.978 15.668 5.473 22.363-6.3 4.209-11.867 9.243-16.586 14.917-4.752-5.735-10.298-10.749-16.498-14.908 3.498-6.697 5.478-14.308 5.478-22.372v-19.243c-2.671-64.337-94.322-64.287-96.969 0v19.243c0 8.061 1.978 15.668 5.473 22.364-6.299 4.209-11.866 9.241-16.584 14.915-4.751-5.735-10.297-10.747-16.5-14.907 3.498-6.697 5.478-14.307 5.478-22.371v-19.244c-2.671-64.337-94.322-64.287-96.969 0v19.243c0 8.061 1.978 15.669 5.474 22.364-21.396 14.298-34.334 38.109-34.334 64.225v24.207c0 5.522 4.477 10 10 10h492c5.523 0 10-4.478 10-10v-24.207c0-26.116-12.938-49.928-34.337-64.225zm-71.496-41.607c1.569-37.797 55.414-37.769 56.969 0v19.243c-1.57 37.798-55.414 37.768-56.969 0zm-147.964 105.832c0-20.017 10.273-38.217 27.146-48.687 16.749 13.992 43.657 13.989 60.404 0 16.871 10.472 27.146 28.677 27.146 48.686v14.207h-114.696zm28.863-105.832c1.57-37.798 55.413-37.768 56.969 0v19.243c-1.569 37.798-55.413 37.768-56.969 0zm-48.863 105.832v14.207h-99.101v-14.207c0-20.016 10.274-38.216 27.146-48.686 16.748 13.991 43.654 13.989 60.4.003 7.232 4.504 13.353 10.527 17.991 17.712-4.182 9.573-6.436 20.071-6.436 30.971zm-70.238-105.832c1.57-37.798 55.413-37.768 56.969 0v19.243c-1.57 37.798-55.413 37.768-56.969 0zm-119.102 0c1.57-37.798 55.413-37.768 56.969 0v19.243c-1.57 37.798-55.413 37.768-56.969 0zm-28.863 105.832c0-20.016 10.274-38.215 27.146-48.687 16.748 13.991 43.654 13.99 60.401.003 7.236 4.506 13.355 10.526 17.991 17.712-4.182 9.573-6.436 20.072-6.436 30.972v14.207h-99.102zm472 14.207h-99.101v-14.207c0-10.897-2.255-21.394-6.437-30.968 4.641-7.185 10.769-13.213 17.993-17.715 16.75 13.989 43.655 13.984 60.4-.004 16.871 10.472 27.145 28.672 27.145 48.687z"/><path d="m203.519 226.002h104.961c5.04 0 9.857-2.104 13.219-5.772 3.126-3.411 4.632-7.759 4.24-12.241l-7.498-85.715c-.811-9.276-8.317-16.271-17.459-16.271h-12.482v-7.5c-1.79-43.126-63.226-43.093-65 0v7.5h-12.483c-9.141 0-16.646 6.995-17.459 16.271l-7.498 85.715c-.392 4.482 1.114 8.83 4.24 12.241 3.362 3.669 8.179 5.772 13.219 5.772zm39.981-127.5c.689-16.587 24.318-16.574 25 0v7.5h-25zm-30.192 27.5h10.192v10.088c.529 13.268 19.476 13.258 20 0v-10.088h25v10.088c.529 13.268 19.476 13.258 20 0v-10.088h10.192l6.998 80h-99.38z"/></g></g></svg>