<svg id="Layer_1" enable-background="new 0 0 511.947 511.947" height="512" viewBox="0 0 511.947 511.947" width="512" xmlns="http://www.w3.org/2000/svg"><g><path d="m475.712 58.81h-149.458c-5.522 0-10 4.478-10 10v24.011h-20.79v-10.408c-2.237-53.887-79.003-53.846-81.22 0v10.408h-30.791c-10.552 0-19.22 8.101-20.161 18.846l-5.753 65.781c-.481 5.502 3.589 10.352 9.091 10.833 5.418.503 10.373-3.575 10.833-9.091l5.753-65.779c.033-.385.196-.582.237-.59l30.791-.005v15.632c.529 13.268 19.476 13.258 20 0v-15.635l41.22-.007v15.642c.529 13.268 19.476 13.258 20 0v-15.645l30.79-.005c.042.031.204.228.237.611l5.472 62.549c.48 5.502 5.336 9.577 10.833 9.091 5.502-.481 9.572-5.331 9.091-10.833l-5.472-62.548c-.615-7.042-4.55-12.949-10.161-16.184v-16.674h34.322v94.666c.529 13.268 19.476 13.258 20 0v-94.666h20.813v94.666c.529 13.268 19.476 13.258 20 0v-94.666h34.322v97.131c.529 13.268 19.476 13.258 20 0v-107.131c.001-5.522-4.477-10-9.999-10zm-241.468 34.011v-10.408c1.135-27.348 40.095-27.326 41.22 0v10.408z" fill="#020288"/><path clip-rule="evenodd" d="m511.947 168.416h-380.472l46.073 169.078h288.327z" fill="#b2f0fb" fill-rule="evenodd"/><g fill="#020288"><path d="m452.272 406.672c10.31-3.965 7.728-19.19-3.468-19.382h-247.323l-78.232-287.099c-1.186-4.352-5.138-7.371-9.648-7.371h-103.654c-13.268.529-13.258 19.476 0 20h96.014l78.232 287.099c.929 3.408 3.554 5.999 6.817 6.962-17.908 26.468 1.646 63.244 33.83 63.052 31.956.196 51.569-36.148 34.097-62.643h125.547c-17.469 26.501 2.139 62.838 34.098 62.643 32.298.192 51.826-36.819 33.69-63.261zm-227.432 43.261c-11.364 0-20.61-9.245-20.61-20.609 1.132-27.341 40.092-27.334 41.22 0-.001 11.364-9.246 20.609-20.61 20.609zm193.742 0c-11.364 0-20.609-9.245-20.609-20.609 1.132-27.342 40.092-27.333 41.22 0-.001 11.364-9.247 20.609-20.611 20.609z"/><path d="m213.361 220.686h216.699c13.268-.529 13.258-19.476 0-20h-216.699c-13.268.529-13.258 19.476 0 20z"/><path d="m433.078 252.955c0-5.522-4.478-10-10-10h-202.733c-13.268.529-13.258 19.476 0 20h202.733c5.522 0 10-4.478 10-10z"/><path d="m227.327 285.224c-13.268.529-13.258 19.476 0 20h188.768c13.268-.529 13.258-19.476 0-20z"/></g></g></svg>