<svg id="Layer_1" enable-background="new 0 0 512.003 512.003" height="512" viewBox="0 0 512.003 512.003" width="512" xmlns="http://www.w3.org/2000/svg"><g><path d="m256.001.662c-141.159 0-256.001 114.842-256.001 256.001 14.062 339.62 497.992 339.522 512.003-.002-.001-141.157-114.842-255.999-256.002-255.999zm115.669 266.001h120.123c-2.375 56.709-24.858 108.31-60.487 147.842-25.138-23.668-54.744-41.906-87.233-53.817 3.074-18.907 5.314-38.898 6.627-59.514.351-5.512-3.833-10.264-9.345-10.615-5.511-.346-10.264 3.833-10.615 9.345-1.242 19.506-3.244 37.734-5.859 54.585-44.526-12.555-93.233-12.555-137.76 0-2.615-16.851-4.617-35.079-5.859-54.585-.351-5.512-5.103-9.691-10.615-9.345-5.512.351-9.695 5.104-9.345 10.615 1.313 20.617 3.553 40.607 6.627 59.514-32.49 11.911-62.094 30.148-87.233 53.816-35.628-39.532-58.111-91.132-60.486-147.841h120.122c13.268-.528 13.258-19.477 0-20h-120.123c2.376-56.709 24.858-108.309 60.487-147.841 25.138 23.667 54.744 41.906 87.233 53.816-3.074 18.907-5.314 38.898-6.627 59.514-.351 5.512 3.833 10.264 9.345 10.615 5.512.354 10.264-3.833 10.615-9.345 1.242-19.506 3.244-37.734 5.859-54.585 44.527 12.555 93.233 12.555 137.76 0 2.615 16.851 4.617 35.079 5.859 54.585.337 5.296 4.737 9.366 9.97 9.365.213 0 .429-.007.645-.021 5.512-.351 9.695-5.104 9.345-10.615-1.313-20.617-3.553-40.607-6.627-59.514 32.49-11.912 62.095-30.149 87.234-53.817 35.629 39.532 58.111 91.132 60.487 147.841h-120.124c-13.268.53-13.258 19.479 0 20.002zm-180.387 181.013c7.185 17.234 15.221 31.11 23.939 41.462-46.14-8.07-87.715-29.588-120.522-60.351 22.581-21.167 48.643-37.421 76.849-48.215 5.106 25.215 11.769 47.999 19.734 67.104zm-.705-73.462c41.802-12.169 89.044-12.169 130.846 0-32.008 155.346-98.844 155.322-130.846 0zm130.141 73.462c7.965-19.105 14.628-41.889 19.733-67.103 28.206 10.794 54.268 27.049 76.849 48.215-32.807 30.763-74.382 52.28-120.522 60.35 8.719-10.352 16.755-24.228 23.94-41.462zm0-382.026c-7.185-17.234-15.222-31.11-23.939-41.462 46.14 8.07 87.715 29.588 120.522 60.35-22.581 21.167-48.644 37.421-76.85 48.215-5.105-25.214-11.768-47.998-19.733-67.103zm.705 73.462c-41.802 12.169-89.044 12.169-130.846 0 32.008-155.346 98.844-155.322 130.846 0zm-130.141-73.462c-7.965 19.105-14.628 41.889-19.734 67.103-28.206-10.794-54.268-27.048-76.849-48.215 32.807-30.763 74.382-52.28 120.522-60.35-8.718 10.352-16.754 24.229-23.939 41.462z" fill="#020288"/><path clip-rule="evenodd" d="m111 201.663h290v110h-290z" fill="#b2f0fb" fill-rule="evenodd"/><g fill="#020288"><path d="m283.961 232.111c-5.276-1.637-10.877 1.316-12.512 6.592l-3.893 12.562-3.918-4.636c-3.768-4.68-11.507-4.68-15.274 0l-3.918 4.636-3.893-12.562c-1.634-5.275-7.237-8.228-12.512-6.592-5.275 1.635-8.227 7.236-6.592 12.512l9.297 30.001c1.081 3.489 3.979 6.112 7.559 6.839.664.135 1.331.201 1.993.201 2.909 0 5.716-1.272 7.637-3.545l8.066-9.543 8.066 9.542c2.358 2.791 6.05 4.074 9.63 3.344 3.58-.728 6.478-3.35 7.559-6.839l9.297-30.001c1.635-5.275-1.317-10.876-6.592-12.511z"/><path d="m203.96 232.111c-5.273-1.636-10.877 1.316-12.512 6.592l-3.893 12.562-3.918-4.636c-3.768-4.68-11.507-4.68-15.274 0l-3.918 4.636-3.893-12.562c-4.431-12.517-22.528-6.899-19.104 5.92l9.297 30.001c1.081 3.489 3.979 6.112 7.559 6.839.664.135 1.331.201 1.993.201 2.909 0 5.716-1.272 7.637-3.545l8.066-9.543 8.066 9.542c2.358 2.791 6.052 4.074 9.63 3.344 3.58-.728 6.478-3.35 7.559-6.839l9.297-30.001c1.635-5.275-1.316-10.876-6.592-12.511z"/><path d="m363.961 232.111c-5.275-1.636-10.877 1.316-12.512 6.592l-3.893 12.562-3.918-4.636c-3.768-4.68-11.507-4.68-15.274 0l-3.918 4.636-3.893-12.562c-1.634-5.275-7.236-8.227-12.512-6.592-5.275 1.635-8.227 7.236-6.592 12.512l9.297 30.001c1.081 3.489 3.979 6.112 7.559 6.839.664.135 1.331.201 1.993.201 2.909 0 5.716-1.272 7.637-3.545l8.066-9.543 8.066 9.542c2.358 2.791 6.051 4.074 9.63 3.344 3.58-.728 6.478-3.35 7.559-6.839l9.297-30.001c1.635-5.275-1.316-10.876-6.592-12.511z"/></g></g></svg>